# xmcd CD database file
#
# Track frame offsets:
#	150
#	23763
#	41748
#	67718
#	98805
#	113125
#	122228
#	152993
#	180893
#	198948
#	217478
#	236670
#	260125
#	281350
#
# Disc length: 4063 seconds
#
# Revision: 0
# Processed by: cddbd v1.5.1PL2 Copyright (c) Steve Scherf et al.
# Submitted via: CDex 1.70beta1
#
DISCID=c70fdd0e
DTITLE=Rick Fay's Big 8 - Memories of You
DYEAR=1991
DGENRE=Jazz
TTITLE0=That Da Da Strain
TTITLE1=Blue, Turning Grey Over You
TTITLE2=Them There Eyes
TTITLE3=Wabash Blues
TTITLE4=Marie
TTITLE5=Memories of You
TTITLE6=Milenberg Joys
TTITLE7=Up a Lazy River
TTITLE8=Ice Cream
TTITLE9=The Story of Jazz
TTITLE10=Petite Fleur
TTITLE11=Louisiana
TTITLE12=Beale Street Mama
TTITLE13=I Can't Believe That You're In Love With Me
EXTD=YEAR: 1991
EXTT0=
EXTT1=
EXTT2=
EXTT3=
EXTT4=
EXTT5=
EXTT6=
EXTT7=
EXTT8=
EXTT9=
EXTT10=
EXTT11=
EXTT12=
EXTT13=
PLAYORDER=
